<svg id="Capa_1" enable-background="new 0 0 512 512" height="512" viewBox="0 0 512 512" width="512" xmlns="http://www.w3.org/2000/svg"><g><circle cx="356" cy="306.001" r="10"/><circle cx="316" cy="326.001" r="10"/><circle cx="296" cy="286.001" r="10"/><circle cx="276" cy="326.001" r="10"/><circle cx="176" cy="306.001" r="10"/><circle cx="136" cy="286.001" r="10"/><circle cx="116" cy="326.001" r="10"/><path d="m40.853 455.147c4.311 23.215 24.701 40.853 49.147 40.853h121c5.523 0 10-4.477 10-10s-4.477-10-10-10h-121c-13.036 0-24.152-8.361-28.28-20.01h388.56c-4.128 11.649-15.243 20.01-28.28 20.01h-121c-5.523 0-10 4.477-10 10s4.477 10 10 10h121c24.445 0 44.835-17.638 49.147-40.853 23.215-4.311 40.853-24.701 40.853-49.146 0-5.523-4.477-10-10-10h-17.001c-2.477-12.267-9.461-23.132-19.66-30.494.434-3.122.661-6.298.661-9.506 0-28.937-17.904-63.333-48.111-92.825 2.641-13.82 9.691-26.321 19.365-35.996l7.781-7.787c11.148 5.311 24.92 3.356 34.137-5.86 11.723-11.723 11.725-30.696 0-42.422-5.274-5.273-12.165-8.342-19.555-8.742-.394-7.115-3.303-14.115-8.726-19.539-11.696-11.695-30.726-11.694-42.422 0-9.383 9.384-11.11 23.2-5.871 34.147l-7.778 7.773c-14.568 14.568-33.811 21.585-51.995 20.364-6.217-.421-12.59-.207-18.995.611 3.531-7.029 8.102-13.222 13.425-18.545l7.771-7.776c10.928 5.23 24.75 3.526 34.147-5.871 11.723-11.724 11.725-30.696 0-42.422-5.274-5.273-12.165-8.342-19.555-8.742-.394-7.115-3.303-14.115-8.726-19.539-5.667-5.666-13.199-8.786-21.211-8.786s-15.545 3.12-21.211 8.786c-9.216 9.217-11.17 22.989-5.86 34.137l-7.79 7.783c-14.315 14.315-33.476 21.613-51.999 20.364-31.228-2.091-64.84 11.626-89.924 36.71-10.298 10.307-17.977 21.286-22.881 32.675-50.368 32.869-84.016 81.371-84.016 121.502 0 3.208.227 6.384.661 9.506-10.2 7.363-17.183 18.227-19.66 30.494h-17.001c-5.523 0-10 4.477-10 10 0 24.445 17.638 44.835 40.853 49.146zm84.125-59.146c-1.072-5.25-2.98-10.289-5.654-14.929 4.893-3.271 10.687-5.071 16.675-5.071 12.679 0 24.028 8.006 28.276 20zm60 0c-1.072-5.25-2.98-10.289-5.654-14.929 4.893-3.271 10.687-5.071 16.675-5.071 12.679 0 24.028 8.006 28.276 20zm60 0c-1.072-5.25-2.98-10.289-5.654-14.929 4.893-3.271 10.687-5.071 16.675-5.071 13.062 0 24.135 8.31 28.276 20zm60 0c-1.072-5.251-2.98-10.29-5.653-14.929 4.893-3.271 10.686-5.071 16.675-5.071 8.603 0 16.798 3.703 22.497 10.171 2.563 2.9 4.509 6.242 5.779 9.829zm60 0c-1.071-5.246-2.977-10.281-5.647-14.917 4.983-3.331 10.694-5.083 16.669-5.083 12.679 0 24.028 8.006 28.276 20zm60 0c-1.072-5.25-2.98-10.289-5.654-14.929 4.893-3.271 10.687-5.071 16.675-5.071 12.998 0 24.174 8.276 28.296 20zm21.022-40c0 .339-.024.672-.031 1.009-3.252-.658-6.577-1.009-9.969-1.009-10.903 0-21.414 3.577-30.004 10.019-4.796-3.6-10.195-6.296-15.929-7.98 15.905-19.894 25.431-43.508 26.841-66.616 18.485 21.948 29.092 45.099 29.092 64.577zm-23.392-170.747c3.906-3.903 3.908-10.239.003-14.145-3.898-3.897-3.898-10.24 0-14.138 3.907-3.907 10.23-3.907 14.137 0s3.909 10.23 0 14.138c-3.905 3.906-3.905 10.237 0 14.142 3.905 3.906 10.237 3.906 14.143 0 3.897-3.897 10.24-3.897 14.138 0 3.898 3.898 3.898 10.24 0 14.138-3.897 3.898-10.24 3.898-14.138 0-3.905-3.904-10.241-3.904-14.145.003 0 0-15.59 15.649-16.531 16.68l-14.287-14.287c2.746-2.508 3.202-3.104 16.68-16.531zm-81.13 39.814c16.5 1.114 33.285-2.906 48.086-11.362l18.719 18.719c-5.915 10.339-9.685 21.689-10.997 33.251-.002.021-.003.042-.006.063-.009.08-.015.16-.022.24-1.633 14.777 6.677 53.752-34.039 91.691-6.209 1.645-12.079 4.495-17.224 8.349-8.581-6.442-19.089-10.018-29.994-10.018-10.896 0-21.401 3.573-29.988 10.006-4.701-3.544-9.989-6.218-15.674-7.909-14.476-13.275-25.761-30.675-26.739-50.208-.901-18 6.986-35.471 23.443-51.928 19.71-19.712 47.346-32.725 74.435-30.894zm-32.52-66.174 13.65-13.64c3.906-3.903 3.908-10.239.003-14.145-3.898-3.897-3.898-10.24 0-14.138 3.897-3.898 10.239-3.899 14.138 0 3.897 3.897 3.897 10.24 0 14.138-3.906 3.906-3.905 10.237 0 14.143 3.904 3.905 10.237 3.905 14.142 0 3.897-3.898 10.24-3.898 14.138 0 3.898 3.897 3.898 10.24 0 14.137-3.907 3.908-10.23 3.908-14.138 0-3.905-3.904-10.241-3.904-14.145.003 0 0-15.588 15.649-16.531 16.681l-14.287-14.287c1.03-.941 2.043-1.904 3.03-2.892zm-67.48 26.174c16.498 1.114 33.285-2.906 48.086-11.362l18.723 18.723c-1.659 2.896-3.149 5.863-4.461 8.896-15.826-3.531-31.873-5.325-47.825-5.325-29.376 0-58.699 6.001-86.471 17.556 20.734-19.528 47.393-30.143 71.948-28.488zm-98.043 64.559c24.195-15.341 63.365-33.626 112.565-33.626 9.642 0 19.326.746 28.977 2.177-11.579 6.06-22.472 14.036-32.077 23.642-20.331 20.331-30.455 43.523-29.276 67.07.85 16.977 7.469 33.641 19.266 48.864-6.093 1.658-11.826 4.466-16.893 8.266-8.582-6.442-19.09-10.019-29.996-10.019-10.903 0-21.414 3.577-30.004 10.019-8.582-6.442-19.09-10.019-29.996-10.019-10.903 0-21.414 3.577-30.004 10.019-8.582-6.442-19.09-10.019-29.996-10.019-3.392 0-6.717.351-9.969 1.009-.007-.337-.031-.671-.031-1.009-.001-33.734 31.841-77.476 77.434-106.374zm-67.435 126.374c12.679 0 24.028 8.006 28.276 20h-56.572c4.128-11.743 15.314-20 28.296-20zm414.287 40c-4.127 11.641-15.249 20-28.287 20h-412c-13.038 0-24.159-8.359-28.287-20z"/><path d="m172.045 115.032c9.488-6.323 15.154-16.906 15.157-28.309.003-11.408-5.662-21.999-15.153-28.331-4.594-3.064-10.804-1.825-13.869 2.769s-1.825 10.804 2.769 13.869c3.975 2.651 6.253 6.912 6.252 11.688-.001 4.772-2.279 9.026-6.252 11.674-9.491 6.332-15.156 16.923-15.153 28.331.003 11.403 5.669 21.986 15.157 28.309 4.576 3.05 10.791 1.839 13.867-2.776 3.063-4.596 1.82-10.804-2.776-13.867-3.969-2.646-6.247-6.899-6.248-11.671 0-4.777 2.279-9.037 6.249-11.686z"/><path d="m222.045 95.032c9.488-6.323 15.154-16.906 15.157-28.309.003-11.408-5.662-21.999-15.153-28.331-4.594-3.065-10.804-1.825-13.869 2.769s-1.825 10.804 2.769 13.869c3.975 2.651 6.253 6.912 6.252 11.688-.001 4.772-2.279 9.026-6.252 11.674-9.491 6.332-15.156 16.923-15.153 28.331.003 11.403 5.669 21.986 15.157 28.309 4.576 3.05 10.791 1.839 13.867-2.776 3.063-4.596 1.82-10.804-2.776-13.867-3.969-2.646-6.247-6.899-6.248-11.671 0-4.777 2.279-9.037 6.249-11.686z"/><path d="m272.045 75.032c9.491-6.325 15.157-17.045 15.157-28.676s-5.667-22.352-15.157-28.676c-4.596-3.063-10.804-1.819-13.867 2.776-3.063 4.596-1.82 10.804 2.776 13.867 3.971 2.646 6.248 7.032 6.248 12.034s-2.277 9.387-6.252 12.036c-9.491 6.332-15.156 16.923-15.153 28.331.003 11.403 5.669 21.986 15.157 28.309 4.576 3.05 10.791 1.839 13.867-2.776 3.063-4.596 1.82-10.804-2.776-13.867-3.969-2.646-6.247-6.899-6.248-11.671-.001-4.778 2.278-9.038 6.248-11.687z"/><circle cx="256" cy="486.001" r="10"/></g></svg>