<?xml version="1.0" encoding="UTF-8"?>
<svg xmlns="http://www.w3.org/2000/svg" id="Outline" viewBox="0 0 512 512" width="512" height="512"><path d="M455.426,136.573A48.007,48.007,0,0,0,380,105.01a48.014,48.014,0,0,0-64.908,8.293c-1.206-.286-2.426-.536-3.666-.73a48,48,0,0,0-94.852,0,47.653,47.653,0,0,0-10.269,2.807A48,48,0,0,0,132,89.01a48.007,48.007,0,0,0-75.426,31.563A48.077,48.077,0,0,0,16,168a47.564,47.564,0,0,0,7.025,25A71.575,71.575,0,0,0,16,224v48c0,72.3,56.719,131.6,128,135.758V432a8,8,0,0,0,8,8H360a8,8,0,0,0,8-8V407.758C439.281,403.6,496,344.3,496,272V224a55.69,55.69,0,0,0-4.022-20.8,47.971,47.971,0,0,0-36.552-66.625ZM224,128a8,8,0,0,0,8-8,32,32,0,0,1,64,0,8,8,0,0,0,8,8,32.036,32.036,0,0,1,32,32,32.4,32.4,0,0,1-.257,4A71.573,71.573,0,0,0,296,152a8,8,0,0,0-8,8v32a8,8,0,0,0,8,8,24.039,24.039,0,0,1,22.624,16H272V160a8,8,0,0,0-16,0v56H223.422a55.953,55.953,0,0,0-31.312-58.536A32.036,32.036,0,0,1,224,128Zm127.426,88H335.187A40.118,40.118,0,0,0,304,184.8V168.569A56.128,56.128,0,0,1,351.426,216ZM88,184a40.068,40.068,0,0,0-39.195,32H32.581a55.992,55.992,0,0,1,110.838,0H127.2A40.068,40.068,0,0,0,88,184Zm22.624,32H65.376a24,24,0,0,1,45.248,0Zm31.962-38.872A40,40,0,0,1,207.2,216H159.545A71.691,71.691,0,0,0,142.586,177.128ZM64,136a8,8,0,0,0,8-8,31.993,31.993,0,0,1,54.4-22.844,8,8,0,0,0,11.2,0,31.99,31.99,0,0,1,54.2,19.287,47.95,47.95,0,0,0-15.226,28.213,55.982,55.982,0,0,0-45.755,13.5,71.845,71.845,0,0,0-97.459,11.037A31.974,31.974,0,0,1,64,136ZM352,424H160V408H352ZM480,272A120.136,120.136,0,0,1,360,392H152A120.136,120.136,0,0,1,32,272v-8H480Zm0-24H32V232H480Zm-79.195-32a40,40,0,0,1,78.39,0Zm79.169-31.166A55.955,55.955,0,0,0,384.581,216H367.545a71.747,71.747,0,0,0-18.194-40.3,47.935,47.935,0,0,0-18.658-55.573,31.984,31.984,0,0,1,43.71,1.025,8,8,0,0,0,11.194,0A32,32,0,0,1,440,144a8,8,0,0,0,8,8,32.036,32.036,0,0,1,32,32C480,184.279,479.981,184.556,479.974,184.834Z"/></svg>
