<svg id="Layer_1" enable-background="new 0 0 511.995 511.995" height="512" viewBox="0 0 511.995 511.995" width="512" xmlns="http://www.w3.org/2000/svg"><g><path d="m511.994 456.225c.016-.6-9.085-158.033-23.137-401.609-.731-12.683-11.256-22.618-23.96-22.618-49.804 0-352.336 0-417.793 0-12.704 0-23.229 9.935-23.96 22.618-.37 6.41-23.144 400.772-23.144 401.83 0 12.986 10.565 23.552 23.552 23.552h464.896c13.011-.001 23.678-10.64 23.546-23.773zm-39.11-400.688 22.047 382.151-39.167-33.572-23.225-356.119h32.357c4.235 0 7.744 3.312 7.988 7.54zm-73.488 389.751c-24.118-418.024-22.192-392.538-23.874-397.291h40.982l23.276 356.905zm-23.396 18.709h-352.448c-4.164 0-7.552-3.388-7.552-7.552 0-.36-.428 7.186 23.116-400.909.244-4.228 3.753-7.539 7.987-7.539h305.793c4.234 0 7.743 3.312 7.987 7.54 23.882 413.938 23.117 400.548 23.117 400.909 0 3.833-2.906 7.551-8 7.551zm112.448 0c-93.982 0-89.715.056-89.663-.102 2.431.372 4.999-.37 6.872-2.242l42.761-42.761 47.048 40.326c-1.109 2.795-3.833 4.779-7.018 4.779z"/><path d="m288 79.997c-13.233 0-24 10.766-24 24 0 10.429 6.689 19.321 16 22.624v65.376c0 44.112-35.888 80-80 80s-80-35.888-80-80v-65.376c9.311-3.302 16-12.195 16-22.624 0-13.234-10.767-24-24-24s-24 10.766-24 24c0 10.429 6.689 19.321 16 22.624v65.376c0 52.935 43.065 96 96 96s96-43.065 96-96v-65.376c9.311-3.302 16-12.195 16-22.624 0-13.233-10.767-24-24-24zm-176 16c4.411 0 8 3.589 8 8s-3.589 8-8 8-8-3.589-8-8 3.589-8 8-8zm176 16c-4.411 0-8-3.589-8-8s3.589-8 8-8 8 3.589 8 8-3.589 8-8 8z"/></g></svg>