<?xml version="1.0" encoding="iso-8859-1"?>
<!-- Generator: Adobe Illustrator 19.0.0, SVG Export Plug-In . SVG Version: 6.00 Build 0)  -->
<svg version="1.1" id="Capa_1" xmlns="http://www.w3.org/2000/svg" xmlns:xlink="http://www.w3.org/1999/xlink" x="0px" y="0px"
	 viewBox="0 0 512.026 512.026" style="enable-background:new 0 0 512.026 512.026;" xml:space="preserve">
<g>
	<g>
		<path d="M501.413,384.954L358.501,333.53l-77.92-216.512c-0.064-0.096-0.064-0.224-0.096-0.352
			c-0.064-0.128-0.128-0.256-0.192-0.384L242.245,10.618c-2.976-8.352-12.192-12.704-20.448-9.632
			c-8.32,2.976-12.64,12.16-9.632,20.48l9.696,26.88c-18.592-10.304-39.68-16.32-61.856-16.32c-70.592,0-128,57.408-128,128
			c0,22.176,6.016,43.264,16.32,61.856l-26.912-9.696c-8.288-3.072-17.44,1.28-20.448,9.632c-3.008,8.32,1.312,17.472,9.632,20.48
			l105.856,38.112c0.064,0.032,0.128,0.064,0.224,0.096c0.064,0.032,0.128,0.032,0.192,0.064l216.672,78.016l51.424,142.912
			c2.336,6.464,8.48,10.528,15.04,10.528c1.792,0,3.616-0.288,5.408-0.928c8.32-2.976,12.64-12.16,9.664-20.48l-42.496-118.016
			l118.016,42.496c1.792,0.64,3.616,0.928,5.408,0.928c6.56,0,12.704-4.064,15.072-10.592
			C514.053,397.114,509.733,387.962,501.413,384.954z M127.589,250.394l-0.192-0.064c-37.92-13.664-63.392-49.952-63.392-90.304
			c0-52.928,43.072-96,96-96c40.288,0,76.512,25.408,90.24,63.232l0.192,0.512c3.68,10.336,5.568,21.184,5.568,32.256
			c0,52.928-43.072,96-96,96C148.869,256.026,137.957,254.138,127.589,250.394z M206.757,278.906
			c32.928-13.024,59.104-39.2,72.128-72.128l40.576,112.672L206.757,278.906z"/>
	</g>
</g>
<g>
	<g>
		<path d="M160.005,96.026c-35.296,0-64,28.704-64,64c0,35.296,28.704,64,64,64s64-28.704,64-64S195.301,96.026,160.005,96.026z
			 M160.005,192.026c-17.632,0-32-14.368-32-32s14.368-32,32-32s32,14.368,32,32S177.637,192.026,160.005,192.026z"/>
	</g>
</g>
<g>
</g>
<g>
</g>
<g>
</g>
<g>
</g>
<g>
</g>
<g>
</g>
<g>
</g>
<g>
</g>
<g>
</g>
<g>
</g>
<g>
</g>
<g>
</g>
<g>
</g>
<g>
</g>
<g>
</g>
</svg>
