<?xml version="1.0" standalone="no"?>
<!DOCTYPE svg PUBLIC "-//W3C//DTD SVG 20010904//EN"
 "http://www.w3.org/TR/2001/REC-SVG-20010904/DTD/svg10.dtd">
<svg version="1.0" xmlns="http://www.w3.org/2000/svg"
 width="512" height="512" viewBox="0 0 512.000000 512.000000"
 preserveAspectRatio="xMidYMid meet">
<metadata>
Created by potrace 1.16, written by Peter Selinger 2001-2019
</metadata>
<g transform="translate(0.000000,512.000000) scale(0.100000,-0.100000)"
fill="#000000" stroke="none">
<path d="M120 3844 c-77 -33 -120 -101 -120 -189 0 -36 7 -69 19 -93 11 -21
485 -502 1098 -1113 l1078 -1077 86 -42 c191 -93 367 -93 558 0 l86 42 1078
1077 c613 611 1087 1092 1098 1113 38 75 19 188 -43 245 -54 51 -145 67 -214
38 -24 -10 -390 -367 -1102 -1076 -742 -738 -1079 -1067 -1107 -1080 -51 -24
-99 -24 -150 0 -28 13 -365 342 -1107 1080 -712 709 -1078 1066 -1102 1076
-45 19 -111 19 -156 -1z"/>
</g>
</svg>
