<?xml version="1.0" standalone="no"?>
<!DOCTYPE svg PUBLIC "-//W3C//DTD SVG 20010904//EN"
 "http://www.w3.org/TR/2001/REC-SVG-20010904/DTD/svg10.dtd">
<svg version="1.0" xmlns="http://www.w3.org/2000/svg"
 width="512" height="512" viewBox="0 0 512.000000 512.000000"
 preserveAspectRatio="xMidYMid meet">
<metadata>
Created by potrace 1.16, written by Peter Selinger 2001-2019
</metadata>
<g transform="translate(0.000000,512.000000) scale(0.100000,-0.100000)"
fill="#000000" stroke="none">
<path d="M2820 4978 c-120 -73 -217 -173 -269 -279 -22 -46 -49 -115 -58 -152
l-18 -69 -52 -18 c-103 -36 -179 -106 -231 -210 -25 -50 -27 -65 -27 -170 0
-109 2 -118 32 -177 l31 -63 -428 0 c-468 0 -472 -1 -553 -60 -47 -34 -103
-110 -112 -150 l-6 -28 -142 -4 c-129 -3 -147 -6 -200 -30 -74 -35 -160 -121
-195 -195 -24 -53 -27 -69 -27 -173 0 -106 2 -119 29 -174 16 -32 47 -78 71
-102 l42 -44 -42 -44 c-24 -24 -55 -70 -71 -102 -27 -55 -29 -68 -29 -174 0
-106 2 -119 29 -174 16 -32 47 -78 71 -102 l42 -44 -42 -44 c-24 -24 -55 -70
-71 -102 -27 -55 -29 -68 -29 -174 0 -106 2 -119 29 -174 16 -32 47 -78 71
-102 l42 -44 -42 -44 c-24 -24 -55 -70 -71 -102 -27 -55 -29 -68 -29 -174 0
-110 1 -118 32 -177 l33 -63 -255 0 c-242 0 -256 -1 -275 -20 -37 -37 -26 -77
71 -271 104 -208 146 -262 246 -311 51 -25 81 -32 144 -36 l79 -5 0 -106 c0
-120 13 -155 72 -191 33 -20 55 -20 1848 -20 1793 0 1815 0 1848 20 59 36 72
71 72 191 l0 106 79 5 c63 4 93 11 144 36 100 49 142 103 245 309 50 98 91
188 92 198 4 38 0 55 -20 75 -19 19 -33 20 -275 20 l-255 0 33 63 c31 59 32
67 32 177 0 106 -2 119 -29 174 -16 32 -48 78 -71 102 l-42 44 42 44 c143 148
143 404 0 552 l-42 44 42 44 c143 148 143 404 0 552 l-42 44 42 44 c186 194
122 530 -123 644 -52 24 -70 27 -199 30 l-142 4 -6 28 c-9 40 -65 116 -112
150 -81 60 -85 60 -554 60 l-429 0 33 63 c31 59 32 67 32 177 0 107 -2 119
-29 175 -17 33 -53 83 -80 111 -48 47 -146 104 -180 104 -19 0 -19 -5 0 61 42
143 106 212 321 345 l22 14 -42 70 c-23 39 -46 70 -52 70 -5 0 -48 -24 -95
-52z m-172 -684 c85 -35 142 -120 142 -214 0 -130 -101 -230 -232 -230 -202 1
-304 242 -165 389 64 67 171 90 255 55z m1097 -635 c17 -10 39 -26 49 -38 l19
-21 -139 0 c-157 0 -194 -11 -251 -71 -62 -66 -63 -73 -63 -454 0 -278 -3
-352 -14 -380 -16 -37 -48 -52 -92 -41 -47 12 -54 51 -54 301 0 249 -4 272
-63 334 -47 49 -100 71 -177 71 -77 0 -130 -22 -177 -71 -65 -69 -63 -48 -63
-694 0 -638 -1 -647 -54 -661 -44 -11 -76 4 -92 41 -11 28 -14 123 -14 540 0
557 1 546 -63 614 -46 48 -101 71 -175 71 -73 0 -124 -19 -171 -63 -64 -61
-71 -90 -71 -300 0 -209 -9 -251 -54 -263 -44 -11 -76 4 -92 41 -11 28 -14
108 -14 420 0 425 0 428 -63 494 -62 65 -86 71 -331 71 l-219 0 19 21 c23 25
49 40 89 50 17 4 541 6 1165 6 1033 -2 1138 -3 1165 -18z m-2041 -233 c50 -21
56 -51 56 -273 l0 -194 -422 3 c-406 3 -425 4 -468 24 -212 99 -174 405 55
445 22 3 199 7 393 8 281 1 359 -2 386 -13z m2551 -13 c151 -80 182 -268 64
-380 -70 -66 -78 -68 -456 -71 l-343 -3 0 194 c0 119 4 207 11 227 21 58 38
60 379 57 290 -2 307 -3 345 -24z m-1255 -233 c26 -14 40 -63 40 -146 l0 -74
-80 0 -80 0 0 74 c0 80 11 124 37 144 20 14 57 16 83 2z m-1240 -492 c0 -128
14 -171 71 -225 47 -44 98 -63 171 -63 74 0 129 23 175 71 51 55 63 95 63 219
l0 110 80 0 80 0 0 -240 0 -241 -742 3 c-731 3 -744 3 -788 24 -212 99 -174
405 55 445 22 3 219 7 438 8 l397 1 0 -112z m1280 40 c1 -154 93 -248 242
-248 74 0 129 23 175 71 46 49 63 97 63 179 l0 72 348 -4 c333 -3 349 -4 387
-25 151 -80 182 -268 64 -380 -75 -71 -41 -68 -776 -71 l-663 -3 0 241 0 240
80 0 80 0 0 -72z m-640 -678 c0 -124 12 -164 63 -219 47 -49 100 -71 177 -71
77 0 130 22 177 71 52 55 63 95 63 219 l0 111 668 -3 c661 -3 667 -3 707 -24
88 -48 135 -122 135 -214 0 -69 -25 -124 -77 -171 -76 -68 48 -64 -1758 -64
l-1640 0 -45 21 c-212 99 -174 405 55 445 22 3 363 7 758 8 l717 1 0 -110z
m1855 -556 c88 -48 135 -122 135 -214 0 -69 -25 -124 -77 -171 -76 -68 48 -64
-1758 -64 l-1640 0 -45 21 c-212 99 -174 405 55 445 22 4 771 6 1665 5 l1625
-1 40 -21z m565 -619 c0 -12 -84 -173 -110 -210 -16 -24 -50 -53 -82 -70 l-53
-30 -2015 0 -2015 0 -53 30 c-32 17 -66 46 -82 70 -26 37 -110 198 -110 210 0
3 1017 5 2260 5 1243 0 2260 -2 2260 -5z m-500 -555 l0 -80 -1760 0 -1760 0 0
80 0 80 1760 0 1760 0 0 -80z"/>
</g>
</svg>
