<?xml version="1.0" standalone="no"?>
<!DOCTYPE svg PUBLIC "-//W3C//DTD SVG 20010904//EN"
 "http://www.w3.org/TR/2001/REC-SVG-20010904/DTD/svg10.dtd">
<svg version="1.0" xmlns="http://www.w3.org/2000/svg"
 width="512" height="512" viewBox="0 0 512.000000 512.000000"
 preserveAspectRatio="xMidYMid meet">
<metadata>
Created by potrace 1.16, written by Peter Selinger 2001-2019
</metadata>
<g transform="translate(0.000000,512.000000) scale(0.100000,-0.100000)"
fill="#000000" stroke="none">
<path d="M1590 4811 c-308 -65 -569 -292 -671 -581 -12 -36 -24 -67 -26 -70
-2 -2 -60 52 -128 120 l-125 125 -66 -65 c-286 -281 -365 -715 -193 -1062 l28
-58 -205 0 -204 0 0 -153 c0 -747 354 -1480 944 -1957 83 -67 322 -230 337
-230 5 0 9 -127 9 -295 l0 -295 1270 0 1270 0 0 295 c0 168 4 295 9 295 15 0
254 163 337 230 590 477 944 1210 944 1957 l0 153 -164 0 -164 0 14 53 c8 28
17 102 21 162 13 252 -77 486 -257 665 -151 152 -342 239 -559 256 l-84 7 -96
97 c-104 105 -190 163 -315 211 -208 81 -465 75 -670 -16 -121 -54 -263 -162
-331 -253 l-29 -39 -91 -6 c-149 -10 -346 -80 -455 -162 l-35 -26 -3 331 -2
330 -113 -1 c-67 0 -146 -8 -197 -18z m80 -823 l0 -613 -291 290 -290 290 6
50 c21 175 144 373 297 477 87 59 143 82 276 117 1 1 2 -275 2 -611z m1742
480 c142 -53 256 -142 338 -264 l50 -76 143 -2 c119 -1 152 -5 207 -25 213
-74 378 -251 431 -461 27 -105 23 -272 -8 -360 l-20 -55 -369 -3 -369 -2 198
198 197 197 -80 80 -80 80 -278 -278 -277 -277 -93 0 -92 0 0 455 0 455 -110
0 -110 0 0 -455 0 -455 -92 0 -93 0 -275 275 -275 275 -80 -80 -80 -80 195
-195 195 -195 -343 0 -342 0 0 303 0 304 28 39 c53 72 149 152 235 193 120 60
181 72 321 69 l119 -2 36 55 c58 90 98 135 164 184 137 104 244 137 422 132
98 -3 132 -9 187 -29z m-2337 -818 l430 -430 -412 0 -411 0 -48 71 c-69 104
-105 218 -112 350 -6 135 14 228 74 350 25 49 46 89 47 89 1 0 196 -193 432
-430z m3818 -707 c-30 -336 -99 -589 -239 -872 -195 -398 -485 -718 -864 -955
l-105 -66 -1125 0 -1125 0 -105 66 c-155 97 -279 195 -410 324 -195 192 -333
383 -454 631 -140 283 -209 536 -239 872 l-5 47 2338 0 2338 0 -5 -47z m-1293
-2273 l0 -160 -1040 0 -1040 0 0 160 0 160 1040 0 1040 0 0 -160z"/>
</g>
</svg>
