<?xml version="1.0" standalone="no"?>
<!DOCTYPE svg PUBLIC "-//W3C//DTD SVG 20010904//EN"
 "http://www.w3.org/TR/2001/REC-SVG-20010904/DTD/svg10.dtd">
<svg version="1.0" xmlns="http://www.w3.org/2000/svg"
 width="512" height="512" viewBox="0 0 512.000000 512.000000"
 preserveAspectRatio="xMidYMid meet">

<g transform="translate(0.000000,512.000000) scale(0.100000,-0.100000)"
fill="#000000" stroke="none">
<path d="M2375 5100 c-182 -39 -312 -108 -443 -234 -133 -128 -203 -238 -257
-406 -25 -78 -28 -101 -32 -292 l-5 -208 -152 0 c-237 0 -333 -30 -439 -136
-96 -96 -131 -186 -151 -388 -8 -78 -72 -785 -142 -1573 -142 -1582 -138
-1499 -77 -1619 33 -66 122 -153 194 -189 113 -58 31 -55 1689 -55 1669 0
1581 -3 1694 58 75 41 153 118 187 183 63 126 67 39 -75 1626 -70 785 -134
1491 -142 1569 -20 202 -55 292 -151 388 -106 106 -202 136 -439 136 l-152 0
-5 208 c-4 191 -7 214 -32 292 -53 164 -124 278 -246 396 -90 85 -143 123
-251 174 -175 84 -391 110 -573 70z m349 -280 c228 -58 408 -237 466 -466 16
-61 20 -110 20 -236 l0 -158 -645 0 -645 0 0 158 c0 186 17 271 77 385 51 96
164 209 260 260 144 76 313 97 467 57z m-1084 -1485 c6 -386 4 -380 86 -411
56 -21 106 -9 149 36 l30 31 5 342 5 342 640 0 640 0 5 -340 c6 -379 4 -371
76 -405 51 -25 67 -25 118 0 72 34 70 26 76 405 l5 340 133 3 c74 1 151 -2
173 -8 53 -14 114 -71 133 -123 11 -29 57 -503 151 -1554 74 -831 135 -1535
135 -1564 0 -47 -3 -55 -43 -94 -25 -25 -58 -47 -82 -54 -57 -16 -2983 -16
-3040 0 -24 7 -57 29 -82 54 -40 40 -43 46 -43 98 0 124 270 3072 285 3113 8
22 30 55 49 73 53 52 92 61 251 58 l140 -2 5 -340z"/>
</g>
</svg>
