<?xml version="1.0" standalone="no"?>
<!DOCTYPE svg PUBLIC "-//W3C//DTD SVG 20010904//EN"
 "http://www.w3.org/TR/2001/REC-SVG-20010904/DTD/svg10.dtd">
<svg version="1.0" xmlns="http://www.w3.org/2000/svg"
 width="512" height="512" viewBox="0 0 512.000000 512.000000"
 preserveAspectRatio="xMidYMid meet">

<g transform="translate(0.000000,512.000000) scale(0.100000,-0.100000)"
fill="#000000" stroke="none">
<path d="M2200 5098 c-49 -25 -90 -89 -90 -138 1 -14 25 -91 54 -172 29 -82
51 -148 49 -148 -2 0 -34 15 -71 34 -196 98 -448 142 -672 117 -315 -36 -572
-162 -788 -385 -175 -182 -285 -391 -339 -646 -24 -116 -24 -363 0 -477 23
-108 62 -222 104 -307 19 -37 33 -69 31 -70 -2 -2 -68 21 -148 50 -80 29 -156
53 -170 54 -14 0 -46 -10 -70 -22 -110 -56 -118 -204 -14 -272 16 -11 756
-281 1644 -600 l1615 -582 256 -711 c141 -391 265 -727 275 -745 28 -48 101
-82 159 -74 74 12 135 81 135 154 0 17 -97 299 -215 628 -119 328 -214 598
-212 600 2 3 267 -91 588 -206 321 -116 602 -213 624 -216 83 -11 174 69 175
154 0 43 -25 97 -59 124 -14 12 -352 139 -751 282 l-725 261 -586 1628 c-406
1127 -594 1636 -610 1654 -51 55 -119 66 -189 31z m-371 -648 c278 -68 509
-258 635 -521 69 -141 89 -235 90 -404 1 -172 -21 -273 -93 -420 -136 -278
-375 -463 -678 -524 -319 -65 -628 31 -863 269 -130 131 -204 260 -251 440
-33 122 -33 328 -1 454 94 374 387 648 769 721 103 19 280 13 392 -15z m1165
-1969 c108 -299 195 -546 193 -548 -6 -5 -1107 391 -1107 398 0 3 31 20 70 38
248 117 485 353 601 602 18 38 36 66 40 62 4 -5 96 -253 203 -552z"/>
<path d="M1485 4150 c-132 -28 -241 -87 -335 -180 -200 -200 -245 -482 -118
-739 82 -166 251 -297 434 -336 411 -87 794 241 771 661 -9 161 -71 297 -187
414 -121 120 -256 179 -425 185 -55 2 -118 0 -140 -5z m246 -342 c201 -93 249
-358 94 -513 -122 -121 -328 -121 -450 0 -78 78 -111 204 -82 306 57 194 260
289 438 207z"/>
</g>
</svg>
