<?xml version="1.0" standalone="no"?>
<!DOCTYPE svg PUBLIC "-//W3C//DTD SVG 20010904//EN"
 "http://www.w3.org/TR/2001/REC-SVG-20010904/DTD/svg10.dtd">
<svg version="1.0" xmlns="http://www.w3.org/2000/svg"
 width="512" height="512" viewBox="0 0 512.000000 512.000000"
 preserveAspectRatio="xMidYMid meet">

<g transform="translate(0.000000,512.000000) scale(0.100000,-0.100000)"
fill="#000000" stroke="none">
<path d="M2281 4589 c-135 -15 -316 -55 -446 -99 -303 -104 -506 -269 -565
-459 -17 -55 -20 -92 -20 -285 l0 -223 -142 -12 c-592 -49 -1032 -290 -1098
-601 -8 -40 -10 -289 -8 -925 l3 -870 23 -54 c78 -183 271 -333 553 -429 520
-179 1228 -142 1661 85 107 57 220 145 272 212 21 28 42 51 46 51 4 0 25 -23
46 -51 22 -27 72 -76 112 -108 238 -189 637 -300 1077 -301 291 0 517 34 744
112 282 96 475 246 553 429 l23 54 3 870 c2 636 0 885 -8 925 -66 311 -506
552 -1098 601 l-142 12 0 216 c0 243 -9 300 -63 389 -143 236 -524 415 -986
462 -121 12 -419 11 -540 -1z m559 -133 c354 -45 626 -151 781 -306 86 -86
114 -143 114 -235 0 -54 -6 -81 -25 -119 -69 -135 -225 -245 -470 -331 -669
-233 -1632 -58 -1830 331 -35 69 -35 169 -1 239 82 167 346 319 681 390 207
45 533 58 750 31z m-1361 -933 c2 -2 -19 -3 -47 -3 l-52 0 0 47 0 47 47 -44
c26 -25 50 -46 52 -47z m2261 42 l0 -45 -49 0 -50 0 47 45 c26 24 48 45 50 45
1 0 2 -20 2 -45z m-2215 -185 c415 -38 783 -193 907 -381 64 -98 73 -167 36
-266 -16 -44 -38 -75 -92 -129 -142 -142 -367 -240 -681 -297 -104 -19 -156
-22 -385 -22 -229 0 -281 3 -385 22 -310 57 -539 156 -676 292 -86 87 -114
144 -114 236 1 119 65 214 213 313 273 182 732 273 1177 232z m2500 0 c297
-27 565 -111 747 -232 148 -99 212 -194 213 -313 0 -92 -28 -149 -114 -236
-136 -136 -367 -236 -671 -291 -145 -26 -488 -36 -641 -19 -216 25 -416 77
-577 152 -258 119 -395 309 -340 470 105 311 745 528 1383 469z m-1370 -222
c-40 -40 -77 -82 -84 -93 l-11 -20 -11 20 c-7 11 -44 53 -84 93 l-71 72 166 0
166 0 -71 -72z m-2479 -669 c16 -17 62 -54 103 -82 180 -122 431 -205 731
-243 132 -16 446 -19 570 -4 382 45 671 154 860 324 l45 41 3 -682 c3 -803 10
-745 -112 -868 -307 -308 -1070 -419 -1681 -243 -250 72 -469 216 -536 353
l-24 50 -3 693 c-1 380 1 692 6 692 4 0 21 -14 38 -31z m2509 -9 c30 -33 133
-104 202 -139 258 -130 554 -191 923 -191 344 0 631 56 876 170 92 42 215 123
258 169 17 17 34 31 38 31 5 0 7 -312 6 -692 l-3 -693 -24 -50 c-34 -69 -141
-172 -236 -226 -244 -140 -548 -209 -915 -209 -477 0 -888 129 -1083 340 -102
110 -97 66 -97 851 0 646 1 679 18 670 9 -5 26 -19 37 -31z"/>
<path d="M2427 4279 c-263 -18 -505 -94 -617 -195 -107 -97 -106 -246 2 -338
135 -116 373 -183 682 -193 340 -11 623 51 781 170 111 84 144 181 94 283 -65
135 -339 250 -640 269 -52 3 -114 7 -139 9 -25 2 -98 0 -163 -5z m415 -326
c109 -109 198 -201 198 -204 0 -3 -37 -15 -82 -27 l-83 -20 -223 221 -222 222
52 6 c29 4 77 5 107 3 l55 -3 198 -198z m-362 -48 l225 -225 -120 0 -120 0
-199 199 c-114 114 -194 201 -188 205 12 7 149 44 167 45 6 1 111 -100 235
-224z m545 184 c144 -45 235 -113 235 -173 0 -24 -10 -42 -40 -71 l-40 -39
-163 162 c-160 162 -162 163 -122 156 22 -3 81 -19 130 -35z m-925 -224 c85
-85 152 -156 150 -159 -10 -9 -178 41 -245 73 -142 66 -179 136 -110 206 20
19 39 35 43 35 4 0 77 -70 162 -155z"/>
<path d="M1052 3184 c-351 -51 -572 -186 -572 -350 0 -151 172 -273 470 -334
485 -99 1071 24 1171 245 23 51 24 126 2 173 -59 125 -271 225 -563 267 -129
18 -381 18 -508 -1z m527 -131 l35 -9 -110 -94 c-60 -51 -119 -103 -132 -114
l-23 -20 -120 119 c-109 110 -117 121 -97 127 30 9 403 2 447 -9z m-592 -55
c18 -18 33 -35 33 -39 0 -3 -67 -61 -150 -128 l-150 -121 -39 26 c-77 50 -90
102 -42 157 37 41 113 83 205 113 93 30 104 30 143 -8z m914 -44 c17 -8 48
-31 70 -51 53 -48 54 -88 2 -139 -61 -61 -221 -124 -378 -149 -39 -6 -42 -4
-97 52 l-57 58 166 142 166 141 50 -19 c27 -11 62 -26 78 -35z m-649 -221 c71
-70 128 -132 128 -137 0 -21 -370 14 -478 46 l-43 13 126 103 c70 56 130 102
133 102 4 0 64 -57 134 -127z"/>
<path d="M3552 3184 c-284 -41 -497 -143 -555 -266 -22 -47 -21 -122 2 -173
100 -221 686 -344 1171 -245 298 61 470 183 470 334 0 166 -221 300 -580 351
-129 18 -381 18 -508 -1z m588 -143 c169 -35 286 -86 341 -148 37 -43 37 -79
1 -119 -189 -207 -955 -242 -1271 -57 -110 64 -130 125 -61 186 85 78 220 124
465 161 17 2 120 3 230 1 152 -3 223 -8 295 -24z"/>
<path d="M3580 2965 c-98 -17 -154 -40 -185 -77 -67 -80 3 -156 175 -189 103
-19 399 -16 495 5 132 30 185 67 185 129 0 66 -86 114 -245 137 -96 13 -334
11 -425 -5z m400 -124 l45 -8 -40 -8 c-53 -11 -287 -11 -350 0 l-50 9 45 7
c64 9 296 9 350 0z"/>
</g>
</svg>
