<?xml version="1.0" standalone="no"?>
<!DOCTYPE svg PUBLIC "-//W3C//DTD SVG 20010904//EN"
 "http://www.w3.org/TR/2001/REC-SVG-20010904/DTD/svg10.dtd">
<svg version="1.0" xmlns="http://www.w3.org/2000/svg"
 width="512.000000pt" height="512.000000pt" viewBox="0 0 512.000000 512.000000"
 preserveAspectRatio="xMidYMid meet">

<g transform="translate(0.000000,512.000000) scale(0.100000,-0.100000)"
fill="#000000" stroke="none">
<path d="M2015 4626 c-94 -41 -124 -169 -58 -247 45 -53 73 -59 268 -59 l175
0 0 -160 c0 -123 -3 -160 -13 -160 -7 0 -69 -7 -137 -15 -970 -120 -1782 -778
-2110 -1710 -97 -276 -145 -594 -138 -907 3 -160 8 -175 72 -222 l27 -21 2459
0 2459 0 27 21 c64 47 69 62 72 222 19 840 -356 1617 -1025 2126 -267 202
-645 376 -983 450 -96 21 -331 56 -377 56 -10 0 -13 37 -13 159 l0 160 189 3
c173 3 192 5 217 24 53 39 69 71 69 134 0 63 -16 95 -69 134 -27 21 -40 21
-554 23 -423 2 -533 0 -557 -11z m900 -975 c490 -82 914 -304 1256 -658 377
-390 593 -885 625 -1431 l7 -122 -2243 0 -2243 0 7 122 c34 573 272 1092 683
1489 367 354 820 564 1338 619 129 14 434 4 570 -19z"/>
<path d="M95 786 c-67 -29 -105 -106 -91 -181 9 -47 59 -102 104 -115 26 -8
785 -10 2474 -8 l2437 3 27 21 c53 39 69 71 69 134 0 63 -16 95 -69 134 l-27
21 -2447 2 c-2019 2 -2452 0 -2477 -11z"/>
</g>
</svg>
